<?xml version="1.0" encoding="UTF-8"?>
<svg id="Lager_1" data-name="Lager 1" xmlns="http://www.w3.org/2000/svg" viewBox="0 0 500 500">
  <defs>
    <style>
      .cls-1, .cls-2 {
        fill: #feffcc;
      }

      .cls-1, .cls-3 {
        stroke-width: 4px;
      }

      .cls-1, .cls-3, .cls-4, .cls-5 {
        stroke: #8e1342;
        stroke-miterlimit: 10;
      }

      .cls-2 {
        stroke-width: 0px;
      }

      .cls-3, .cls-5 {
        fill: #de6464;
      }

      .cls-4 {
        fill: none;
        stroke-width: 3px;
      }

      .cls-5 {
        stroke-width: 7px;
      }
    </style>
  </defs>
  <g>
    <circle class="cls-5" cx="250" cy="250" r="232.43"/>
    <path class="cls-3" d="m249.54,378.18c5.19-19.07,10.37-38.13,15.56-57.2,6.94-25.5,13.87-50.99,20.81-76.49,0,0,0-.03,0-.06,0-.02-.03-.03-.05-.04l-30.83-11.99s-.04,0-1.7-4.79l-41.13,13.71c1.59,4.8,1.57,4.85,1.58,4.89,5.33,19.78,10.67,39.56,16,59.34,2.75,10.19,5.49,20.37,8.24,30.56l11.34,42.06s.05.07.17,0Z"/>
    <circle class="cls-1" cx="249.85" cy="158.49" r="39.53"/>
    <circle class="cls-1" cx="218.91" cy="203.17" r="39.53"/>
    <path class="cls-1" d="m320.31,203.17c0,6.65-.56,18.95-2.31,24.83-11.51,38.77-19.82,16-35,16-21.83,0-41.75-19-41.75-40.83s17.7-39.53,39.53-39.53,39.53,17.7,39.53,39.53Z"/>
    <g>
      <path class="cls-2" d="m112.95,360.92c-4.64,3.35-6.97,5.02-11.65,8.32-.45-.71-1.18-1.86-2.19-3.36-.63-.92-1.73-2.42-3.19-4.52-.8.42-2.73,1.5-5.64,3.25-2.81,1.69-7.01,4.27-12.58,7.51-4.01-5.68-5.93-8.64-9.55-14.78,2.53-1.73,6.58-4.49,11.86-8.27,1.83-1.31,3.63-2.68,5.38-3.98-1.1-1.79-1.64-2.7-2.71-4.54-1.04-1.62-1.55-2.44-2.56-4.11,4.92-2.92,7.39-4.36,12.33-7.24,5.72,11.24,12.58,21.9,20.49,31.72Z"/>
      <path class="cls-2" d="m135.27,383.91c-4.1,4.07-6.17,6.09-10.32,10.11-.51-.57-1.65-1.8-3.36-3.63-1.17-1.25-2.52-2.6-3.98-4.06-1.34,1.12-2.01,1.68-3.35,2.8,1.63,1.66,4.38,4.26,8.39,7.57-.54.27-1.51.82-2.89,1.64-.83.49-1.74,1.13-2.71,1.88-.4-.49-1.48-1.68-3.21-3.46-.8-.83-2.08-2.02-3.73-3.63-1.51,1.36-2.26,2.05-3.77,3.41,1.2,1.16,3.47,3.28,6.9,6.07.65.53,1.8,1.31,3.46,2.31-.44.24-1.48.84-3.14,1.77-.84.49-1.89,1.12-3.16,1.89-7.7-6.67-15.12-14.27-21.61-22.11,5.16-4.94,7.75-7.39,12.96-12.28,3-2.76,7.09-6.75,12.32-11.91,6.24,7.74,13.6,15.25,21.22,21.64Z"/>
      <path class="cls-2" d="m175.12,409.42c-1.58,2.78-4.44,7.89-8.49,15.26-2.49,4.53-5.19,9.74-8.13,15.52-4.32-2.04-6.45-3.13-10.66-5.42,1.95-3.82,2.92-5.73,4.88-9.54-6.13,1.91-9.28,2.75-15.74,4.17-1.89-6.58-2.69-9.88-3.98-16.43-2.57,3.38-3.86,5.08-6.44,8.45-3.93-2.81-5.86-4.28-9.65-7.35,2.05-2.8,5.56-7.57,10.39-14.24,2.78-3.84,6.03-8.68,9.82-14.37,4.99,4.15,7.58,6.09,12.87,9.7-.16,1.23-.42,3.29-.57,6.08-.1,2.02.03,4.61.39,7.65,1.27-.42,3.72-1.41,7.26-3.07,1.28-.63,3.02-1.63,5.17-3.02,5.05,2.86,7.63,4.18,12.87,6.6Z"/>
      <path class="cls-2" d="m207.73,434.86c-.95,4.19-3.48,7.18-7.76,8.77-4.28,1.59-9.57,1.49-15.57-.51-1.03,2.58-1.55,3.87-2.59,6.44-6.84-2.29-10.23-3.58-16.88-6.45,2.37-6.36,3.57-9.53,5.99-15.86,1.53-4.1,3.59-9.74,6.26-16.89,2.8.74,6.72,2.16,11.87,4.03,6.27,2.28,11.04,4.8,14.4,7.99,3.82,3.62,5.36,7.72,4.28,12.49Zm-12.9.64c.67-2.27-.75-3.88-4.21-4.99-.41-.13-.84-.25-1.28-.35-1.12,2.98-1.68,4.47-2.82,7.45,4.71,1.43,7.5.64,8.31-2.11Z"/>
      <path class="cls-2" d="m245.46,425.68c-.46,5.7-.7,8.55-1.22,14.25-.76-.11-2.01-.3-3.65-.48-1.01-.11-2.71-.23-5.02-.44-.18.88-.59,3.05-1.12,6.4-.51,3.25-1.24,8.11-2.32,14.46-6.28-.52-9.41-.89-15.64-1.87.31-3.05.83-7.9,1.38-14.38.19-2.25.33-4.49.48-6.66-1.84-.25-2.76-.38-4.59-.67-1.68-.18-2.51-.28-4.19-.49.92-5.65,1.39-8.47,2.36-14.1,11.39,2.07,21.98,3.33,33.54,3.99Z"/>
      <path class="cls-2" d="m286.11,457.58c-7.03,1.19-10.57,1.64-17.66,2.24-.59-1.16-.87-1.74-1.45-2.91-.48.17-1.66.73-3.59,1.64-1.23.65-2.6,1.49-4.12,2.51-.79-1.07-1.18-1.6-1.95-2.67-.38-.53-.94-1.28-1.64-2.24-.64,1.77-.97,2.65-1.64,4.42-3.77.07-5.66.07-9.43-.03,1.48-3.7,3.87-9.9,6.35-18.44,1.64-5.67,2.78-11.24,3.64-16.42,6.53-.17,9.79-.4,16.29-1.15.78,2.3,2.76,7.73,6.48,15.9,1.95,4.29,4.82,10.05,8.73,17.14Zm-20.94-4.97c-.42-.77-1.14-2.03-2.13-3.77-.6-.96-1.49-2.29-2.65-3.99-.42.9-1.07,2.37-1.99,4.41-.51,1.17-1.11,2.76-1.82,4.77.63-.02,2.08-.13,4.27-.45,1.32-.19,2.78-.53,4.32-.97Z"/>
      <path class="cls-2" d="m313.26,414.28c1.75,5.45,2.61,8.18,4.3,13.65-.75.18-1.99.48-3.59.93-.99.28-2.61.81-4.85,1.48.17.89.61,3.05,1.4,6.35.76,3.2,1.94,7.97,3.36,14.26-6.05,1.88-9.1,2.7-15.26,4.12-.87-2.94-2.24-7.63-4.2-13.83-.68-2.15-1.41-4.28-2.1-6.35-1.8.46-2.7.67-4.51,1.09-1.62.46-2.44.68-4.07,1.11-1.3-5.57-1.94-8.36-3.19-13.94,11.39-2.34,21.7-5.13,32.72-8.86Z"/>
      <path class="cls-2" d="m332.16,405.86c3.06,6.78,4.58,10.18,7.56,17,1.63,3.66,3.89,8.63,6.73,14.92-6.61,3.35-9.99,4.87-16.83,7.6-5.02-10.53-9.97-21.08-14.85-31.67,7.1-2.75,10.59-4.32,17.39-7.85Z"/>
      <path class="cls-2" d="m375.91,396.34c3.48,4.07,4.99,8.79,4.18,14.19-.85,5.66-4.12,10.62-9.63,14.39-5.69,3.89-11.51,5.11-17.02,3.77-5.19-1.26-8.96-4.39-11.49-9.11-2.71-5.03-3.13-9.87-1.58-14.52,1.46-4.37,4.41-7.94,8.95-11.04,4.46-3.05,8.87-4.5,13.54-4.31,4.96.2,9.36,2.3,13.06,6.62Zm-9.28,12.46c-2.48-3.4-5.25-3.96-8.38-1.82-3.04,2.08-3.46,4.84-1.16,8.41.92,1.43,2.2,2.49,3.86,3.17,1.87.76,3.53.65,4.93-.31,1.37-.94,2.09-2.48,2.14-4.58.04-1.92-.43-3.53-1.4-4.86Z"/>
      <path class="cls-2" d="m390.87,356.01c2.27,2.07,6.28,5.69,11.99,10.7,4.19,3.68,9.17,7.85,14.77,12.51-3.12,1.51-7.85,3.76-14.15,6.25-2.65,1.15-6.6,2.8-11.85,4.63,3.32,3.5,4.98,5.25,8.29,8.75-3.13,3.16-4.73,4.69-7.99,7.65-2.19-2.16-6.39-6.22-12.52-12.17-4.96-4.82-9.22-8.86-12.73-12.11,4.29-3.78,6.37-5.77,10.39-9.96,5.28-.88,7.95-1.44,13.32-2.83-1.39-1.19-2.52-2.1-3.35-2.72-.74-.55-1.75-1.27-3.02-2.13,2.82-3.31,4.19-5.02,6.84-8.56Z"/>
      <path class="cls-2" d="m420.26,335.68c-.99,1.38-1.69,2.43-2.09,3.18-.5.93-.75,1.89-.74,2.89,0,1.21.41,2.05,1.23,2.51.63.36,2.33.21,5.1-.55,2.77-.76,4.94-.8,6.48,0,2.24,1.18,3.36,3.52,3.28,7.04-.08,3.36-1.25,6.98-3.54,10.68-2.11,3.41-3.88,5.75-5.22,7.11-.7-.21-1.87-.6-3.43-1.01-.85-.23-2.07-.47-3.55-.8,1.79-1.87,2.92-3.21,3.41-3.95,1.92-2.93,2.11-4.89.67-5.81-1.05-.66-2.36-.66-3.92-.03-2.3,1.19-4.61,2.31-6.92,3.36-4.48,2.04-8.11,1.84-10.92-.24-2.93-2.17-4.04-5.3-3.52-9.38.45-3.56,2.07-7.49,4.77-12.09,1.53-2.61,3.48-5.42,5.82-8.55,5.23,2.28,7.85,3.4,13.11,5.62Z"/>
    </g>
    <g>
      <path class="cls-2" d="m194.11,87.04c-4.96,2.68-7.38,4.19-12.05,7.51-1.02-.76-1.53-1.14-2.56-1.88-.25.35-.82,1.33-1.65,2.95-.49,1.1-.93,2.42-1.31,3.96-1.16-.47-1.74-.7-2.92-1.15-.58-.22-1.41-.52-2.5-.89.68,1.72,1.03,2.58,1.75,4.28-2.33,2.04-3.47,3.11-5.69,5.33-1.83-3.46-4.81-9.28-8.61-17.35-2.52-5.36-5.08-10.5-7.47-15.24,6.32-5.42,9.62-7.88,16.45-12.29,1.82,1.66,6.3,5.44,12.89,11.53,3.46,3.19,8.18,7.53,13.65,13.25Zm-18.26,2.82c-.73-.46-1.96-1.17-3.71-2.1-1-.49-2.45-1.12-4.37-1.84.18.97.52,2.55,1.04,4.7.32,1.22.84,2.82,1.59,4.79.43-.36,1.37-1.25,2.78-2.62.85-.83,1.73-1.82,2.66-2.92Z"/>
      <path class="cls-2" d="m222.78,53.83c.59,2.66.01,5.35-1.43,7.85-1.27,2.2-3.01,3.99-5.22,5.44.69.52,2.34,1.55,4.81,3.2,1.21.74,3,1.67,5.28,2.89-.74.41-2.39,1.39-4.72,3.05-1.64,1.17-3.15,2.4-4.51,3.57-.62-.39-2.03-1.44-4.38-3.06-1.11-.85-2.83-2.32-5.27-4.34-.02,0-.03.01-.05.02.98,3.03,1.47,4.54,2.46,7.56-5.38,1.95-8.03,3.09-13.18,5.72-1.67-2.85-4.45-7.59-8.22-14.13-2.22-3.85-5.42-9.18-9.75-15.83,5.21-3.26,10.24-5.76,14.91-7.6,9.01-3.55,26.45-7.15,29.27,5.65Zm-11.79,7.96c-.42-1.38-1.46-2.15-3.16-2.25-1.25-.08-2.72.2-4.37.85.98,2.95,1.47,4.42,2.45,7.37,1.47-.52,2.69-1.24,3.69-2.14,1.31-1.19,1.8-2.45,1.39-3.83Z"/>
      <path class="cls-2" d="m257.97,52.73c-1.07-.32-2.45-.53-4.15-.58-3.16-.1-5.74.57-7.65,1.88-2.16,1.48-3.13,3.59-3,6.26.1,2.09,1.01,3.75,2.65,5.04,1.64,1.29,3.69,1.93,6.23,1.98,1.74.04,3.4-.26,5.02-.91-.22.61-.61,1.75-1.09,3.37-.31,1.07-.59,2.23-.86,3.41-1.9.56-4.28.81-7.19.85-5.26.07-9.81-1.14-14.08-3.83-4.64-2.93-7.74-6.96-8.76-12.5-.95-5.12.32-9.69,4.27-13.47,4.21-4.03,10.88-6.47,19.49-6.51,4.14-.02,7.14.29,8.96.73.1,5.71.14,8.56.16,14.27Z"/>
      <path class="cls-2" d="m300.69,47.08c-2.29,5.25-3.42,7.88-5.65,13.15-.7-.34-1.86-.9-3.43-1.51-.97-.38-2.61-.93-4.88-1.61-.36.83-1.19,2.87-2.33,6.07-1.1,3.1-2.7,7.74-4.77,13.83-4.73-1.26-7.12-1.77-11.93-2.53.35-3.04.91-7.89,1.42-14.37.18-2.25.28-4.49.38-6.67-1.87-.22-2.8-.31-4.67-.47-1.7-.05-2.55-.07-4.25-.07.17-5.72.24-8.57.34-14.29,13.56,1.02,26.96,3.87,39.76,8.46Z"/>
      <path class="cls-2" d="m323.44,57.46c-4.08,6.22-6.1,9.34-10.07,15.62-2.11,3.4-4.94,8.05-8.44,13.99-5.08-2.76-7.7-3.96-13.02-6.04,3.65-11.07,7.18-22.14,10.61-33.28,8.59,3.21,12.8,5.15,20.92,9.71Z"/>
      <path class="cls-2" d="m346.33,92.58c-.65-1.01-1.63-2.15-2.95-3.4-2.47-2.31-4.97-3.62-7.36-3.96-2.69-.39-4.86.53-6.51,2.64-1.29,1.64-1.67,3.52-1.21,5.63.45,2.11,1.67,4.02,3.68,5.86,1.37,1.26,2.9,2.21,4.63,2.89-.57.3-1.65.87-3.09,1.76-.95.58-1.94,1.25-2.94,1.95-1.9-.94-3.98-2.44-6.32-4.43-4.25-3.62-7.05-7.62-8.64-12.54-1.73-5.34-1.49-10.44,1.35-15.3,2.62-4.5,6.6-7.11,12.2-7.31,5.96-.21,12.83,2.46,19.74,8.47,3.32,2.89,5.53,5.26,6.71,6.89-3.68,4.37-5.53,6.54-9.26,10.86Z"/>
    </g>
  </g>
  <path class="cls-4" d="m229.2,241.34l53.55,9.29c.32.06.34.51.02.59l-62.19,15.03c-.31.08-.3.52.01.59l55.09,11.15c.3.06.33.48.04.58l-47.81,16.93c-.26.09-.27.46,0,.56l39.1,15.07c.25.1.26.46,0,.56l-31.6,12.68c-.22.09-.26.38-.07.52l21.22,15.74c1.42,1.06,1.62,3.11.42,4.42l-10.98,13.96-.5,1.5"/>
  <path class="cls-4" d="m255.25,357.19l-12.9-10.32c-.93-.75-.94-2.17,0-2.92l19.05-15.44c.98-.79.78-2.34-.36-2.86l-27.2-12.48c-.87-.4-.85-1.65.03-2.02l36.09-15.09c.73-.3.67-1.35-.08-1.58l-45.1-13.56c-.51-.15-.5-.88.02-1.01l53.52-14.06c.47-.12.45-.79-.03-.88l-60.83-11.87c-.46-.09-.48-.74-.02-.85l47.06-11.73"/>
</svg>